<svg width="64" height="64" viewBox="0 0 64 64" fill="none" xmlns="http://www.w3.org/2000/svg">
<g clip-path="url(#clip0_428_1910)">
<path opacity="0.98" fill-rule="evenodd" clip-rule="evenodd" d="M63.9375 1.0625C63.9375 14.3125 63.9375 27.5625 63.9375 40.8125C63.8346 41.3525 63.5014 41.665 62.9375 41.75C57.3126 41.8125 51.6876 41.8334 46.0625 41.8125C45.9278 40.4706 45.1777 39.8456 43.8125 39.9375C43.924 39.3202 43.9657 38.6952 43.9375 38.0625C49.021 38.0834 54.1044 38.0625 59.1875 38C59.721 37.9043 60.0126 37.5918 60.0625 37.0625C60.1874 26.3752 60.2291 15.6669 60.1875 4.9375C60.0352 4.34775 59.6603 3.99357 59.0625 3.875C40.9375 3.79166 22.8125 3.79166 4.6875 3.875C4.24104 3.92898 3.94938 4.15815 3.8125 4.5625C3.69008 4.9531 3.6484 5.36976 3.6875 5.8125C3.64591 16.3335 3.68759 26.8335 3.8125 37.3125C3.91986 37.6815 4.16986 37.9106 4.5625 38C13.8124 38.0625 23.0624 38.0834 32.3125 38.0625C32.9635 39.3371 33.7135 40.5455 34.5625 41.6875C31.2615 41.647 27.9699 41.6887 24.6875 41.8125C16.729 41.8334 8.77072 41.8125 0.8125 41.75C0.434153 41.6819 0.142485 41.4944 -0.0625 41.1875C-0.0625 27.6875 -0.0625 14.1875 -0.0625 0.6875C0.179164 0.425521 0.47083 0.238021 0.8125 0.125C21.5209 0.0416667 42.2291 0.0416667 62.9375 0.125C63.4187 0.294148 63.7521 0.606647 63.9375 1.0625Z" fill="#342EAD"/>
<path fill-rule="evenodd" clip-rule="evenodd" d="M60.1875 4.9375C60.0674 5.15808 60.0256 5.40808 60.0625 5.6875C41.3125 5.6875 22.5625 5.6875 3.8125 5.6875C3.8125 5.3125 3.8125 4.9375 3.8125 4.5625C3.94938 4.15815 4.24104 3.92898 4.6875 3.875C22.8125 3.79167 40.9375 3.79167 59.0625 3.875C59.6603 3.99358 60.0352 4.34775 60.1875 4.9375Z" fill="#8E95E6"/>
<path fill-rule="evenodd" clip-rule="evenodd" d="M3.81254 4.5625C3.81254 4.9375 3.81254 5.3125 3.81254 5.6875C22.5625 5.6875 41.3125 5.6875 60.0625 5.6875C60.0257 5.40808 60.0674 5.15808 60.1875 4.9375C60.2292 15.6669 60.1874 26.3752 60.0625 37.0625C60.0625 27.6041 60.0625 18.1459 60.0625 8.6875C60.0625 8.64584 60.0625 8.60416 60.0625 8.5625C60.0625 7.64584 60.0625 6.72916 60.0625 5.8125C41.3125 5.8125 22.5625 5.8125 3.81254 5.8125C3.77087 5.8125 3.7292 5.8125 3.68754 5.8125C3.64844 5.36976 3.69011 4.9531 3.81254 4.5625Z" fill="#A8ABE5"/>
<path fill-rule="evenodd" clip-rule="evenodd" d="M3.8125 5.8125C22.5625 5.8125 41.3125 5.8125 60.0625 5.8125C60.0625 6.72916 60.0625 7.64584 60.0625 8.5625C41.3125 8.5625 22.5625 8.5625 3.8125 8.5625C3.8125 7.64584 3.8125 6.72916 3.8125 5.8125Z" fill="#FEF7F1"/>
<path fill-rule="evenodd" clip-rule="evenodd" d="M3.68745 5.8125C3.72912 5.8125 3.77079 5.8125 3.81245 5.8125C3.81245 6.72916 3.81245 7.64584 3.81245 8.5625C22.5625 8.5625 41.3125 8.5625 60.0625 8.5625C60.0625 8.60416 60.0625 8.64584 60.0625 8.6875C41.3125 8.6875 22.5625 8.6875 3.81245 8.6875C3.81245 18.2291 3.81245 27.7709 3.81245 37.3125C3.68754 26.8335 3.64587 16.3335 3.68745 5.8125Z" fill="#E0E2DA"/>
<path fill-rule="evenodd" clip-rule="evenodd" d="M60.0625 8.6875C60.0625 18.1459 60.0625 27.6041 60.0625 37.0625C60.0126 37.5918 59.721 37.9043 59.1875 38C54.1044 38.0625 49.021 38.0834 43.9375 38.0625C43.897 37.4413 43.7304 36.8579 43.4375 36.3125C44.7709 36.3125 46.1041 36.3125 47.4375 36.3125C47.4375 28.7709 47.4375 21.2291 47.4375 13.6875C47.4375 13.0625 47.4375 12.4375 47.4375 11.8125C35.4375 11.8125 23.4375 11.8125 11.4375 11.8125C11.4375 12.4375 11.4375 13.0625 11.4375 13.6875C11.4375 21.2291 11.4375 28.7709 11.4375 36.3125C18.1459 36.3125 24.8541 36.3125 31.5625 36.3125C31.7882 36.9068 32.0382 37.49 32.3125 38.0625C23.0624 38.0834 13.8124 38.0625 4.5625 38C4.16986 37.9106 3.91986 37.6815 3.8125 37.3125C3.8125 27.7709 3.8125 18.2291 3.8125 8.6875C22.5625 8.6875 41.3125 8.6875 60.0625 8.6875Z" fill="#ECD3C2"/>
<path fill-rule="evenodd" clip-rule="evenodd" d="M10.3125 13.6875C10.2708 13.6875 10.2292 13.6875 10.1875 13.6875C10.1875 13.1041 10.1875 12.5209 10.1875 11.9375C8.47916 11.9375 6.77084 11.9375 5.0625 11.9375C5.0625 12.5209 5.0625 13.1041 5.0625 13.6875C5.02084 13.6875 4.97916 13.6875 4.9375 13.6875C4.9375 13.0625 4.9375 12.4375 4.9375 11.8125C6.72916 11.8125 8.52084 11.8125 10.3125 11.8125C10.3125 12.4375 10.3125 13.0625 10.3125 13.6875Z" fill="#AAA9E0"/>
<path fill-rule="evenodd" clip-rule="evenodd" d="M47.4375 13.6875C47.3959 13.6875 47.3541 13.6875 47.3125 13.6875C47.3125 13.1041 47.3125 12.5209 47.3125 11.9375C35.3959 11.9375 23.4791 11.9375 11.5625 11.9375C11.5625 12.5209 11.5625 13.1041 11.5625 13.6875C11.5208 13.6875 11.4792 13.6875 11.4375 13.6875C11.4375 13.0625 11.4375 12.4375 11.4375 11.8125C23.4375 11.8125 35.4375 11.8125 47.4375 11.8125C47.4375 12.4375 47.4375 13.0625 47.4375 13.6875Z" fill="#A5A5E1"/>
<path fill-rule="evenodd" clip-rule="evenodd" d="M10.1875 13.6875C8.47916 13.6875 6.77084 13.6875 5.0625 13.6875C5.0625 13.1041 5.0625 12.5209 5.0625 11.9375C6.77084 11.9375 8.47916 11.9375 10.1875 11.9375C10.1875 12.5209 10.1875 13.1041 10.1875 13.6875Z" fill="#8F95E6"/>
<path fill-rule="evenodd" clip-rule="evenodd" d="M47.3125 13.6875C35.3959 13.6875 23.4791 13.6875 11.5625 13.6875C11.5625 13.1041 11.5625 12.5209 11.5625 11.9375C23.4791 11.9375 35.3959 11.9375 47.3125 11.9375C47.3125 12.5209 47.3125 13.1041 47.3125 13.6875Z" fill="#8F95E6"/>
<path fill-rule="evenodd" clip-rule="evenodd" d="M48.6875 11.9375C52.1041 11.9375 55.5209 11.9375 58.9375 11.9375C58.9375 15.3541 58.9375 18.7709 58.9375 22.1875C55.5209 22.1875 52.1041 22.1875 48.6875 22.1875C48.6875 18.7709 48.6875 15.3541 48.6875 11.9375Z" fill="#FEF6F1"/>
<path fill-rule="evenodd" clip-rule="evenodd" d="M57.9375 13.0625C57.0209 13.0625 56.1041 13.0625 55.1875 13.0625C54.2709 13.0625 53.3541 13.0625 52.4375 13.0625C52.4375 13.9375 52.4375 14.8125 52.4375 15.6875C51.5209 15.6875 50.6041 15.6875 49.6875 15.6875C49.6875 14.7709 49.6875 13.8541 49.6875 12.9375C52.4591 12.8961 55.2091 12.9379 57.9375 13.0625Z" fill="#A3F0FB"/>
<path fill-rule="evenodd" clip-rule="evenodd" d="M55.1875 13.0625C55.1875 13.9375 55.1875 14.8125 55.1875 15.6875C54.2709 15.6875 53.3541 15.6875 52.4375 15.6875C52.4375 14.8125 52.4375 13.9375 52.4375 13.0625C53.3541 13.0625 54.2709 13.0625 55.1875 13.0625Z" fill="#69EAFB"/>
<path fill-rule="evenodd" clip-rule="evenodd" d="M55.1875 13.0625C56.1041 13.0625 57.0209 13.0625 57.9375 13.0625C57.9375 13.9375 57.9375 14.8125 57.9375 15.6875C57.0209 15.6875 56.1041 15.6875 55.1875 15.6875C55.1875 14.8125 55.1875 13.9375 55.1875 13.0625Z" fill="#61D4E3"/>
<path fill-rule="evenodd" clip-rule="evenodd" d="M4.9375 13.6875C4.97916 13.6875 5.02084 13.6875 5.0625 13.6875C6.77084 13.6875 8.47916 13.6875 10.1875 13.6875C10.2292 13.6875 10.2708 13.6875 10.3125 13.6875C10.3125 21.2291 10.3125 28.7709 10.3125 36.3125C8.52084 36.3125 6.72916 36.3125 4.9375 36.3125C4.9375 28.7709 4.9375 21.2291 4.9375 13.6875Z" fill="#FEF6F1"/>
<path fill-rule="evenodd" clip-rule="evenodd" d="M11.4375 13.6875C11.4792 13.6875 11.5208 13.6875 11.5625 13.6875C23.4791 13.6875 35.3959 13.6875 47.3125 13.6875C47.3541 13.6875 47.3959 13.6875 47.4375 13.6875C47.4375 21.2291 47.4375 28.7709 47.4375 36.3125C46.1041 36.3125 44.7709 36.3125 43.4375 36.3125C41.9097 33.8546 39.6806 32.6462 36.75 32.6875C35.477 32.7386 34.2062 32.822 32.9375 32.9375C32.1769 32.9113 31.4269 32.8488 30.6875 32.75C30.5511 33.008 30.5302 33.2789 30.625 33.5625C30.9263 34.4874 31.2388 35.404 31.5625 36.3125C24.8541 36.3125 18.1459 36.3125 11.4375 36.3125C11.4375 28.7709 11.4375 21.2291 11.4375 13.6875Z" fill="#FEF6F1"/>
<path fill-rule="evenodd" clip-rule="evenodd" d="M49.6875 15.8125C50.6041 15.8125 51.5209 15.8125 52.4375 15.8125C52.4375 16.6875 52.4375 17.5625 52.4375 18.4375C51.5209 18.4375 50.6041 18.4375 49.6875 18.4375C49.6875 17.5625 49.6875 16.6875 49.6875 15.8125Z" fill="#EA82F9"/>
<path fill-rule="evenodd" clip-rule="evenodd" d="M52.4375 15.8125C53.3541 15.8125 54.2709 15.8125 55.1875 15.8125C55.1875 16.6875 55.1875 17.5625 55.1875 18.4375C54.2709 18.4375 53.3541 18.4375 52.4375 18.4375C52.4375 17.5625 52.4375 16.6875 52.4375 15.8125Z" fill="#D476E1"/>
<path fill-rule="evenodd" clip-rule="evenodd" d="M55.1875 15.8125C56.0625 15.8125 56.9375 15.8125 57.8125 15.8125C57.8125 16.6875 57.8125 17.5625 57.8125 18.4375C56.9375 18.4375 56.0625 18.4375 55.1875 18.4375C55.1875 17.5625 55.1875 16.6875 55.1875 15.8125Z" fill="#B565C2"/>
<path fill-rule="evenodd" clip-rule="evenodd" d="M49.6875 15.8125C49.6875 15.7709 49.6875 15.7291 49.6875 15.6875C50.6041 15.6875 51.5209 15.6875 52.4375 15.6875C53.3541 15.6875 54.2709 15.6875 55.1875 15.6875C56.1041 15.6875 57.0209 15.6875 57.9375 15.6875C57.9375 16.6041 57.9375 17.5209 57.9375 18.4375C57.8959 18.4375 57.8541 18.4375 57.8125 18.4375C57.8125 17.5625 57.8125 16.6875 57.8125 15.8125C56.9375 15.8125 56.0625 15.8125 55.1875 15.8125C54.2709 15.8125 53.3541 15.8125 52.4375 15.8125C51.5209 15.8125 50.6041 15.8125 49.6875 15.8125Z" fill="#CB96D9"/>
<path fill-rule="evenodd" clip-rule="evenodd" d="M32.6875 25.6875C32.6041 25.6875 32.5209 25.6875 32.4375 25.6875C31.8845 23.9101 30.8011 22.5767 29.1875 21.6875C29.1875 21.6041 29.1875 21.5209 29.1875 21.4375C30.3722 19.7375 31.5597 18.0291 32.75 16.3125C34.797 19.4274 36.8595 22.5316 38.9375 25.625C36.8546 25.6875 34.7713 25.7084 32.6875 25.6875Z" fill="#FF8355"/>
<path fill-rule="evenodd" clip-rule="evenodd" d="M49.6875 18.4375C50.6041 18.4375 51.5209 18.4375 52.4375 18.4375C52.4375 19.3541 52.4375 20.2709 52.4375 21.1875C51.5209 21.1875 50.6041 21.1875 49.6875 21.1875C49.6875 20.2709 49.6875 19.3541 49.6875 18.4375Z" fill="#FEAC8D"/>
<path fill-rule="evenodd" clip-rule="evenodd" d="M52.4375 18.4375C53.3541 18.4375 54.2709 18.4375 55.1875 18.4375C55.1875 18.4791 55.1875 18.5209 55.1875 18.5625C55.1875 19.4375 55.1875 20.3125 55.1875 21.1875C54.2709 21.1875 53.3541 21.1875 52.4375 21.1875C52.4375 20.2709 52.4375 19.3541 52.4375 18.4375Z" fill="#FE8455"/>
<path fill-rule="evenodd" clip-rule="evenodd" d="M55.1875 18.5625C56.0625 18.5625 56.9375 18.5625 57.8125 18.5625C57.8125 19.4375 57.8125 20.3125 57.8125 21.1875C56.9375 21.1875 56.0625 21.1875 55.1875 21.1875C55.1875 20.3125 55.1875 19.4375 55.1875 18.5625Z" fill="#DF7349"/>
<path fill-rule="evenodd" clip-rule="evenodd" d="M55.1875 18.5625C55.1875 18.5209 55.1875 18.4791 55.1875 18.4375C56.0625 18.4375 56.9375 18.4375 57.8125 18.4375C57.8541 18.4375 57.8959 18.4375 57.9375 18.4375C57.9781 19.3774 57.9365 20.294 57.8125 21.1875C57.8125 20.3125 57.8125 19.4375 57.8125 18.5625C56.9375 18.5625 56.0625 18.5625 55.1875 18.5625Z" fill="#E79272"/>
<path fill-rule="evenodd" clip-rule="evenodd" d="M29.1873 21.4375C29.1873 21.5209 29.1873 21.6041 29.1873 21.6875C28.2535 22.9776 27.3368 24.2901 26.4373 25.625C28.4369 25.6875 30.4369 25.7084 32.4373 25.6875C32.5207 25.6875 32.6039 25.6875 32.6873 25.6875C33.2659 28.9661 32.1409 31.4453 29.3123 33.125C25.8849 34.5374 23.0724 33.7666 20.8748 30.8125C19.0967 27.3689 19.7008 24.4314 22.6873 22C24.751 20.6569 26.9177 20.4694 29.1873 21.4375Z" fill="#6AEAFB"/>
<path fill-rule="evenodd" clip-rule="evenodd" d="M29.1875 21.6875C30.8011 22.5767 31.8845 23.9101 32.4375 25.6875C30.4371 25.7084 28.4371 25.6875 26.4375 25.625C27.337 24.2901 28.2538 22.9776 29.1875 21.6875Z" fill="#D476E1"/>
<path fill-rule="evenodd" clip-rule="evenodd" d="M58.9375 25.3125C55.5209 25.3125 52.1041 25.3125 48.6875 25.3125C48.6875 24.6875 48.6875 24.0625 48.6875 23.4375C52.1041 23.4375 55.5209 23.4375 58.9375 23.4375C58.9375 24.0625 58.9375 24.6875 58.9375 25.3125Z" fill="#9297E5"/>
<path fill-rule="evenodd" clip-rule="evenodd" d="M48.6875 25.3125C52.1041 25.3125 55.5209 25.3125 58.9375 25.3125C58.9375 28.9791 58.9375 32.6459 58.9375 36.3125C55.5209 36.3125 52.1041 36.3125 48.6875 36.3125C48.6875 32.6459 48.6875 28.9791 48.6875 25.3125Z" fill="#FEF5F1"/>
<path fill-rule="evenodd" clip-rule="evenodd" d="M49.6875 26.5625C50.6041 26.5625 51.5209 26.5625 52.4375 26.5625C52.4375 27.5209 52.4375 28.4791 52.4375 29.4375C51.5209 29.4375 50.6041 29.4375 49.6875 29.4375C49.6875 28.4791 49.6875 27.5209 49.6875 26.5625Z" fill="#EDD5C3"/>
<path fill-rule="evenodd" clip-rule="evenodd" d="M53.3123 27.5625C54.7712 27.5416 56.2296 27.5625 57.6873 27.625C58.0207 27.875 58.0207 28.125 57.6873 28.375C56.2272 28.4791 54.7688 28.4582 53.3123 28.3125C53.1719 28.0647 53.1719 27.8147 53.3123 27.5625Z" fill="#EDD4C2"/>
<path fill-rule="evenodd" clip-rule="evenodd" d="M49.6875 30.0625C50.6041 30.0625 51.5209 30.0625 52.4375 30.0625C52.4375 30.9791 52.4375 31.8959 52.4375 32.8125C51.5209 32.8125 50.6041 32.8125 49.6875 32.8125C49.6875 31.8959 49.6875 30.9791 49.6875 30.0625Z" fill="#EDD4C2"/>
<path fill-rule="evenodd" clip-rule="evenodd" d="M53.3124 31.0625C54.7713 31.0416 56.2297 31.0625 57.6874 31.125C58.0208 31.375 58.0208 31.625 57.6874 31.875C56.2708 31.9584 54.854 31.9584 53.4374 31.875C53.1644 31.6377 53.1228 31.367 53.3124 31.0625Z" fill="#EDD4C2"/>
<path opacity="0.999" fill-rule="evenodd" clip-rule="evenodd" d="M43.4376 36.3125C43.7305 36.8579 43.8971 37.4412 43.9376 38.0625C43.9659 38.6952 43.9241 39.3202 43.8126 39.9375C42.4376 41.0625 41.1876 42.3125 40.0626 43.6875C39.7434 43.7985 39.41 43.8401 39.0626 43.8125C37.2405 43.7764 35.7405 43.068 34.5626 41.6875C33.7136 40.5455 32.9636 39.3371 32.3126 38.0625C32.0384 37.49 31.7884 36.9067 31.5626 36.3125C31.2389 35.404 30.9264 34.4874 30.6251 33.5625C30.5304 33.2789 30.5513 33.008 30.6876 32.75C31.427 32.8487 32.177 32.9112 32.9376 32.9375C34.2064 32.822 35.4771 32.7386 36.7501 32.6875C39.6808 32.6462 41.9099 33.8546 43.4376 36.3125Z" fill="#F7865A"/>
<path opacity="0.996" fill-rule="evenodd" clip-rule="evenodd" d="M43.8124 39.9375C45.1777 39.8456 45.9277 40.4706 46.0624 41.8125C45.9545 42.0526 45.8713 42.3026 45.8124 42.5625C45.2409 42.9454 44.72 43.4038 44.2499 43.9375C44.1665 44.0625 44.1665 44.1875 44.2499 44.3125C48.724 49.5786 53.2449 54.8078 57.8124 60C60.2667 61.2929 62.2249 60.772 63.6874 58.4375C63.7485 58.6244 63.8318 58.7911 63.9374 58.9375C63.9374 59.6041 63.9374 60.2709 63.9374 60.9375C63.1674 63.0165 61.6674 63.954 59.4374 63.75C58.7935 63.6363 58.2102 63.3863 57.6874 63C52.8282 57.4326 48.0157 51.8285 43.2499 46.1875C42.8412 45.6254 42.3412 45.5421 41.7499 45.9375C40.5 45.7079 39.9375 44.9579 40.0624 43.6875C41.1874 42.3125 42.4374 41.0625 43.8124 39.9375Z" fill="#FE6D34"/>
<path opacity="0.988" fill-rule="evenodd" clip-rule="evenodd" d="M34.5625 41.6875C35.7404 43.068 37.2404 43.7764 39.0625 43.8125C39.0625 44.7291 39.0625 45.6459 39.0625 46.5625C34.2709 46.5625 29.4791 46.5625 24.6875 46.5625C24.6875 44.9791 24.6875 43.3959 24.6875 41.8125C27.9699 41.6888 31.2615 41.647 34.5625 41.6875Z" fill="#5861C7"/>
<path opacity="0.98" fill-rule="evenodd" clip-rule="evenodd" d="M45.8125 42.5625C51.6779 47.4895 57.4904 52.4895 63.25 57.5625C63.3992 57.8607 63.545 58.1525 63.6875 58.4375C62.225 60.772 60.2668 61.2929 57.8125 60C53.245 54.8078 48.7242 49.5786 44.25 44.3125C44.1667 44.1875 44.1667 44.0625 44.25 43.9375C44.7202 43.4038 45.241 42.9454 45.8125 42.5625Z" fill="#F78456"/>
<path opacity="0.977" fill-rule="evenodd" clip-rule="evenodd" d="M24.6875 46.5625C29.4791 46.5625 34.2709 46.5625 39.0625 46.5625C40.3549 46.5417 41.6465 46.5625 42.9375 46.625C43.3293 46.7362 43.6209 46.9655 43.8125 47.3125C43.6226 47.8254 43.2476 48.0961 42.6875 48.125C35.4791 48.2084 28.2709 48.2084 21.0625 48.125C20.5408 48.0331 20.1657 47.7622 19.9375 47.3125C20.1291 46.9655 20.4207 46.7362 20.8125 46.625C22.1035 46.5625 23.3951 46.5417 24.6875 46.5625Z" fill="#666FE4"/>
<path opacity="0.999" fill-rule="evenodd" clip-rule="evenodd" d="M19.9376 47.3125C20.1659 47.7623 20.5409 48.0331 21.0626 48.125C28.271 48.2084 35.4792 48.2084 42.6876 48.125C43.2477 48.0961 43.6227 47.8254 43.8126 47.3125C44.2296 48.2841 43.9379 48.9716 42.9376 49.375C35.5626 49.4584 28.1876 49.4584 20.8126 49.375C19.8206 48.9666 19.529 48.2791 19.9376 47.3125Z" fill="#342EAD"/>
</g>
<defs>
<clipPath id="clip0_428_1910">
<rect width="64" height="64" fill="white"/>
</clipPath>
</defs>
</svg>
