<svg width="515" height="59" viewBox="0 0 515 59" fill="none" xmlns="http://www.w3.org/2000/svg">
<path d="M505.447 0H9.52417C4.25548 0 0 5.44444 0 12.1852V59H515V12.1852C515 5.44444 510.716 0 505.447 0Z" fill="#342EAD"/>
<g filter="url(#filter0_d_428_2202)">
<path d="M88.4541 37.3068C93.5084 37.3068 97.6057 33.2087 97.6057 28.1534C97.6057 23.0981 93.5084 19 88.4541 19C83.3998 19 79.3025 23.0981 79.3025 28.1534C79.3025 33.2087 83.3998 37.3068 88.4541 37.3068Z" fill="#F0F8FF"/>
<path d="M59.3203 37.3068C64.3746 37.3068 68.4719 33.2087 68.4719 28.1534C68.4719 23.0981 64.3746 19 59.3203 19C54.266 19 50.1687 23.0981 50.1687 28.1534C50.1687 33.2087 54.266 37.3068 59.3203 37.3068Z" fill="#FE6D34"/>
<path d="M21 28.1534C21 33.1929 25.0788 37.3068 30.1516 37.3068C35.1901 37.3068 39.3032 33.2272 39.3032 28.1534C39.3032 23.1139 35.2244 19 30.1516 19C25.0788 19 21 23.0796 21 28.1534Z" fill="#F0F8FF"/>
</g>
<defs>
<filter id="filter0_d_428_2202" x="9" y="11" width="100.606" height="42.3068" filterUnits="userSpaceOnUse" color-interpolation-filters="sRGB">
<feFlood flood-opacity="0" result="BackgroundImageFix"/>
<feColorMatrix in="SourceAlpha" type="matrix" values="0 0 0 0 0 0 0 0 0 0 0 0 0 0 0 0 0 0 127 0" result="hardAlpha"/>
<feOffset dy="4"/>
<feGaussianBlur stdDeviation="6"/>
<feComposite in2="hardAlpha" operator="out"/>
<feColorMatrix type="matrix" values="0 0 0 0 0 0 0 0 0 0 0 0 0 0 0 0 0 0 0.25 0"/>
<feBlend mode="normal" in2="BackgroundImageFix" result="effect1_dropShadow_428_2202"/>
<feBlend mode="normal" in="SourceGraphic" in2="effect1_dropShadow_428_2202" result="shape"/>
</filter>
</defs>
</svg>
