<svg width="75" height="75" viewBox="0 0 75 75" fill="none" xmlns="http://www.w3.org/2000/svg">
<path opacity="0.984" fill-rule="evenodd" clip-rule="evenodd" d="M30.249 13.2568C30.1056 13.7146 30.0567 14.2028 30.1025 14.7217C30.1025 15.8936 30.1025 17.0654 30.1025 18.2373C29.7956 20.0065 28.868 21.3249 27.3193 22.1924C27.6265 21.5282 27.8952 20.8447 28.125 20.1416C28.2227 16.4795 28.2227 12.8174 28.125 9.15527C27.5146 7.17773 26.2207 5.88379 24.2431 5.27344C18.0908 5.17577 11.9385 5.17577 5.78612 5.27344C5.60068 5.31877 5.42978 5.39201 5.27342 5.49316C5.20541 5.40609 5.18099 5.30843 5.20018 5.20019C5.88987 4.51287 6.71994 4.049 7.69042 3.80859C14.0448 3.66526 20.3925 3.71409 26.7334 3.95508C28.6818 4.683 29.8292 6.0746 30.1758 8.12988C30.249 9.83817 30.2735 11.5472 30.249 13.2568Z" fill="#1811A5"/>
<path fill-rule="evenodd" clip-rule="evenodd" d="M5.2002 5.2002C5.18101 5.30844 5.20543 5.4061 5.27344 5.49317C5.4298 5.39202 5.6007 5.31878 5.78614 5.27344C11.9385 5.17578 18.0908 5.17578 24.2432 5.27344C26.2207 5.8838 27.5146 7.17774 28.125 9.15528C28.2227 12.8174 28.2227 16.4795 28.125 20.1416C27.8952 20.8447 27.6265 21.5282 27.3193 22.1924C26.9684 22.4323 26.5778 22.6031 26.1475 22.7051C24.8789 22.7783 23.6093 22.8026 22.3389 22.7783C21.8017 22.7783 21.2647 22.7783 20.7275 22.7783C16.7473 22.7298 12.7922 22.7786 8.86231 22.9248C6.27469 22.6554 4.59012 21.2881 3.8086 18.8232C3.71094 15.1124 3.71094 11.4014 3.8086 7.69043C4.04901 6.71996 4.51288 5.88989 5.2002 5.2002Z" fill="#3832AF"/>
<path opacity="0.973" fill-rule="evenodd" clip-rule="evenodd" d="M53.833 23.9502C53.2958 24.3897 52.8076 24.8779 52.3682 25.415C50.4445 27.2653 48.5402 29.1453 46.6553 31.0547C45.9728 31.3708 45.2893 31.6393 44.6045 31.8604C43.9381 32.0014 43.3033 32.1967 42.7002 32.4463C42.1956 32.5332 41.7072 32.6796 41.2354 32.8857C40.9906 32.8611 40.7953 32.7634 40.6494 32.5928C41.9846 32.2465 43.303 31.8315 44.6045 31.3477C50.9726 25.0283 57.2959 18.6563 63.5742 12.2314C63.6719 12.0361 63.6719 11.8408 63.5742 11.6455C62.5396 10.6355 61.5385 9.61008 60.5713 8.56934C60.5713 8.47168 60.5225 8.42285 60.4248 8.42285C60.7906 7.80093 61.3277 7.5812 62.0361 7.76367C63.2325 8.95997 64.4287 10.1562 65.625 11.3525C65.7227 11.5967 65.7227 11.8408 65.625 12.085C61.6648 16.0207 57.7342 19.9758 53.833 23.9502Z" fill="#B08E62"/>
<path fill-rule="evenodd" clip-rule="evenodd" d="M60.5714 8.56934C61.5386 9.61008 62.5397 10.6355 63.5743 11.6455C63.672 11.8408 63.672 12.0361 63.5743 12.2314C57.296 18.6563 50.9727 25.0283 44.6046 31.3477C43.3031 31.8315 41.9847 32.2465 40.6495 32.5928C40.4834 32.2315 40.4589 31.8409 40.5762 31.4209C40.7926 30.8452 40.9636 30.2593 41.0889 29.6631C41.2896 29.2062 41.4361 28.718 41.5284 28.1982C41.7197 27.7825 41.8907 27.3431 42.0411 26.8799C45.2689 23.6766 48.4671 20.4539 51.6358 17.2119C52.086 16.9088 52.4277 16.5182 52.6612 16.04C52.71 16.04 52.7589 16.04 52.8077 16.04C52.9159 16.0592 53.0136 16.0348 53.1007 15.9668C55.5716 13.4714 58.0618 11.0056 60.5714 8.56934Z" fill="#C39D6C"/>
<path fill-rule="evenodd" clip-rule="evenodd" d="M9.74132 9.8877C14.5267 9.86329 19.3119 9.8877 24.0968 9.96094C24.6835 10.4531 24.6347 10.8925 23.9503 11.2793C19.2628 11.377 14.5753 11.377 9.8878 11.2793C9.36865 10.8584 9.31981 10.3945 9.74132 9.8877Z" fill="#EDE9EB"/>
<path opacity="0.971" fill-rule="evenodd" clip-rule="evenodd" d="M30.2491 13.2568C36.304 13.2324 42.3586 13.2568 48.4131 13.3301C50.195 13.6735 51.6109 14.5768 52.6612 16.04C52.4277 16.5182 52.0859 16.9088 51.6358 17.2119C50.7416 15.8364 49.4722 15.0551 47.8272 14.8682C41.9439 14.7218 36.0356 14.673 30.1026 14.7217C30.0567 14.2028 30.1057 13.7146 30.2491 13.2568Z" fill="#615260"/>
<path opacity="0.863" fill-rule="evenodd" clip-rule="evenodd" d="M60.4248 8.42285C60.5225 8.42285 60.5713 8.47167 60.5713 8.56934C58.0617 11.0056 55.5715 13.4714 53.1006 15.9668C53.0136 16.0348 52.9159 16.0592 52.8076 16.04C55.2979 13.4521 57.8369 10.9131 60.4248 8.42285Z" fill="#BE9070"/>
<path fill-rule="evenodd" clip-rule="evenodd" d="M30.1025 14.7217C36.0356 14.6731 41.9439 14.7218 47.8271 14.8682C41.9678 14.8682 36.1084 14.8682 30.249 14.8682C30.2966 16.0184 30.2479 17.1413 30.1025 18.2373C30.1025 17.0654 30.1025 15.8936 30.1025 14.7217Z" fill="#CBC2C7"/>
<path fill-rule="evenodd" clip-rule="evenodd" d="M47.8271 14.8682C49.4722 15.0551 50.7416 15.8364 51.6357 17.2119C48.467 20.4539 45.2688 23.6766 42.041 26.8799C41.8906 27.3431 41.7196 27.7825 41.5283 28.1982C40.9809 27.7548 40.3462 27.5108 39.624 27.4658C41.6801 25.9027 42.144 23.9496 41.0156 21.6064C39.5843 19.623 37.7533 19.0859 35.5225 19.9951C34.2444 20.4936 33.4387 21.4213 33.1055 22.7783C32.7568 24.7384 33.3672 26.301 34.9365 27.4658C31.9548 28.3241 30.0749 30.2771 29.2969 33.3252C29.1857 33.7831 29.1125 34.247 29.0771 34.7168C29.0537 35.0786 29.1514 35.3959 29.3701 35.6689C34.6622 35.8636 39.9356 35.8636 45.1904 35.6689C45.2808 35.6527 45.3541 35.6039 45.4102 35.5225C45.576 34.3586 45.4295 33.2357 44.9707 32.1533C44.9096 31.9693 44.7876 31.8716 44.6045 31.8604C45.2893 31.6393 45.9728 31.3708 46.6553 31.0547C48.5402 29.1453 50.4445 27.2653 52.3682 25.415C52.3682 32.788 52.3682 40.1612 52.3682 47.5342C50.7081 47.5342 49.0478 47.5342 47.3877 47.5342C47.4119 47.0435 47.3874 46.5552 47.3145 46.0693C47.1924 45.9473 47.0703 45.8251 46.9482 45.7031C40.5029 45.6054 34.0576 45.6054 27.6123 45.7031C27.359 45.9652 27.2613 46.2826 27.3193 46.6553C27.295 47.9745 27.3193 49.2929 27.3926 50.6104C27.5121 50.8042 27.6831 50.9017 27.9053 50.9033C34.1793 51.074 40.4782 51.0983 46.8018 50.9766C47.0215 50.8545 47.1924 50.6836 47.3145 50.4639C47.3874 49.978 47.4119 49.4897 47.3877 48.999C49.0478 48.999 50.7081 48.999 52.3682 48.999C52.3682 50.1709 52.3682 51.3428 52.3682 52.5146C49.9474 52.0683 47.8966 52.703 46.2158 54.4189C45.3284 55.525 44.9377 56.7946 45.0439 58.2275C37.4755 58.2275 29.9073 58.2275 22.3389 58.2275C22.3389 52.6611 22.3389 47.0947 22.3389 41.5283C23.999 41.5283 25.6592 41.5283 27.3193 41.5283C27.2952 42.0677 27.3195 42.6047 27.3926 43.1396C27.5121 43.3334 27.6831 43.431 27.9053 43.4326C34.1793 43.6033 40.4782 43.6276 46.8018 43.5059C46.9727 43.3349 47.1435 43.1641 47.3145 42.9932C47.4122 41.5283 47.4122 40.0635 47.3145 38.5986C47.1924 38.4766 47.0703 38.3544 46.9482 38.2324C40.5029 38.1347 34.0576 38.1347 27.6123 38.2324C27.3902 38.5103 27.2925 38.8277 27.3193 39.1846C27.3193 39.4775 27.3193 39.7705 27.3193 40.0635C25.6592 40.0635 23.999 40.0635 22.3389 40.0635C22.3389 34.3018 22.3389 28.54 22.3389 22.7783C23.6093 22.8026 24.8789 22.7783 26.1475 22.7051C26.5778 22.6031 26.9684 22.4323 27.3193 22.1924C28.868 21.3249 29.7957 20.0065 30.1025 18.2373C30.2479 17.1413 30.2966 16.0184 30.249 14.8682C36.1084 14.8682 41.9678 14.8682 47.8271 14.8682Z" fill="#EBEEF0"/>
<path fill-rule="evenodd" clip-rule="evenodd" d="M9.88776 15.1611C14.5755 15.1367 19.263 15.1611 23.9503 15.2344C24.6346 15.6211 24.6834 16.0605 24.0967 16.5527C19.3115 16.6504 14.5264 16.6504 9.74127 16.5527C9.33892 16.0478 9.38775 15.5839 9.88776 15.1611Z" fill="#EDE8EA"/>
<path fill-rule="evenodd" clip-rule="evenodd" d="M39.624 27.4658C39.4288 27.5635 39.2333 27.6611 39.0381 27.7588C39.6453 27.0243 40.1092 26.1943 40.4297 25.2685C40.6939 21.7485 39.0583 19.9907 35.5225 19.9951C37.7533 19.0859 39.5843 19.623 41.0156 21.6064C42.144 23.9496 41.6801 25.9027 39.624 27.4658Z" fill="#DDC7BA"/>
<path fill-rule="evenodd" clip-rule="evenodd" d="M35.5223 19.9951C39.0581 19.9907 40.6938 21.7485 40.4295 25.2685C40.109 26.1943 39.6451 27.0243 39.0379 27.7588C38.6093 27.9343 38.1699 28.0808 37.7196 28.1982C36.7091 28.2508 35.7814 28.0068 34.9364 27.4658C33.3671 26.301 32.7567 24.7384 33.1053 22.7783C33.4386 21.4213 34.2442 20.4936 35.5223 19.9951Z" fill="#F5DBCC"/>
<path opacity="0.939" fill-rule="evenodd" clip-rule="evenodd" d="M8.8623 22.9248C12.7922 22.7786 16.7473 22.7298 20.7275 22.7783C20.7275 22.8271 20.7275 22.876 20.7275 22.9248C19.7509 22.9248 18.7745 22.9248 17.7979 22.9248C17.7979 28.6377 17.7979 34.3506 17.7979 40.0635C18.7745 40.0635 19.7509 40.0635 20.7275 40.0635C21.2647 40.0635 21.8017 40.0635 22.3389 40.0635C23.999 40.0635 25.6592 40.0635 27.3193 40.0635C27.3193 40.5517 27.3193 41.0401 27.3193 41.5283C25.6592 41.5283 23.999 41.5283 22.3389 41.5283C21.7718 41.4822 21.2347 41.531 20.7275 41.6748C19.4083 41.6991 18.0899 41.6748 16.7725 41.6016C16.5628 41.5334 16.392 41.4113 16.2598 41.2353C16.1865 35.1321 16.1621 29.0285 16.1865 22.9248C13.7451 22.9248 11.3037 22.9248 8.8623 22.9248Z" fill="#3832AF"/>
<path fill-rule="evenodd" clip-rule="evenodd" d="M20.7275 22.7783C21.2647 22.7783 21.8017 22.7783 22.3389 22.7783C22.3389 28.54 22.3389 34.3018 22.3389 40.0635C21.8017 40.0635 21.2647 40.0635 20.7275 40.0635C20.7275 34.3506 20.7275 28.6377 20.7275 22.9248C20.7275 22.876 20.7275 22.8271 20.7275 22.7783Z" fill="#645663"/>
<path opacity="0.995" fill-rule="evenodd" clip-rule="evenodd" d="M53.833 23.9502C53.833 31.8116 53.833 39.6728 53.833 47.5342C53.3448 47.5342 52.8564 47.5342 52.3682 47.5342C52.3682 40.1612 52.3682 32.788 52.3682 25.415C52.8076 24.8779 53.2958 24.3896 53.833 23.9502Z" fill="#61515F"/>
<path fill-rule="evenodd" clip-rule="evenodd" d="M39.624 27.4658C40.3462 27.5108 40.9809 27.7548 41.5283 28.1982C41.436 28.718 41.2896 29.2062 41.0889 29.6631C40.0146 29.0524 38.8915 28.5642 37.7197 28.1982C38.17 28.0808 38.6095 27.9343 39.0381 27.7588C39.2333 27.6611 39.4288 27.5635 39.624 27.4658Z" fill="#59A6E5"/>
<path fill-rule="evenodd" clip-rule="evenodd" d="M34.9365 27.4658C35.7816 28.0068 36.7093 28.2508 37.7197 28.1982C38.8914 28.5642 40.0145 29.0524 41.0889 29.6631C40.9635 30.2593 40.7925 30.8452 40.5762 31.4209C40.4588 31.8409 40.4833 32.2315 40.6494 32.5928C40.7953 32.7634 40.9906 32.8611 41.2353 32.8857C41.7072 32.6796 42.1955 32.5332 42.7002 32.4463C42.9013 32.4233 43.0967 32.4478 43.2861 32.5195C43.9097 33.4758 44.2027 34.5255 44.165 35.6689C44.5068 35.6689 44.8487 35.6689 45.1904 35.6689C39.9356 35.8636 34.6621 35.8636 29.3701 35.6689C29.1514 35.3959 29.0537 35.0786 29.0771 34.7168C29.1124 34.247 29.1857 33.7831 29.2969 33.3252C30.0748 30.2771 31.9548 28.3241 34.9365 27.4658Z" fill="#60B6FD"/>
<path fill-rule="evenodd" clip-rule="evenodd" d="M44.6045 31.8604C44.7876 31.8716 44.9096 31.9693 44.9707 32.1533C45.4295 33.2357 45.576 34.3586 45.4102 35.5225C45.3541 35.6039 45.2808 35.6527 45.1904 35.6689C44.8487 35.6689 44.5068 35.6689 44.165 35.6689C44.2027 34.5255 43.9097 33.4758 43.2861 32.5195C43.0967 32.4478 42.9013 32.4233 42.7002 32.4463C43.3033 32.1967 43.9381 32.0014 44.6045 31.8604Z" fill="#5AA6E5"/>
<path fill-rule="evenodd" clip-rule="evenodd" d="M27.9052 43.4326C34.0088 43.4326 40.1122 43.4326 46.2158 43.4326C46.2401 42.1622 46.2158 40.8926 46.1425 39.624C46.0102 39.4481 45.8394 39.3259 45.6298 39.2578C39.5265 39.1846 33.423 39.1601 27.3193 39.1846C27.2925 38.8277 27.3902 38.5103 27.6122 38.2324C34.0576 38.1347 40.5029 38.1347 46.9482 38.2324C47.0702 38.3544 47.1924 38.4766 47.3144 38.5986C47.4121 40.0635 47.4121 41.5283 47.3144 42.9932C47.1434 43.1641 46.9726 43.3349 46.8017 43.5059C40.4781 43.6276 34.1793 43.6033 27.9052 43.4326Z" fill="#1C15A6"/>
<path fill-rule="evenodd" clip-rule="evenodd" d="M27.3196 39.1846C33.4233 39.1601 39.5269 39.1846 45.6301 39.2578C45.8397 39.3259 46.0105 39.4481 46.1428 39.624C46.2161 40.8926 46.2404 42.1622 46.2161 43.4326C40.1125 43.4326 34.0091 43.4326 27.9055 43.4326C27.6833 43.431 27.5124 43.3335 27.3928 43.1397C27.3197 42.6047 27.2954 42.0677 27.3196 41.5283C27.3196 41.0401 27.3196 40.5517 27.3196 40.0635C27.3196 39.7705 27.3196 39.4775 27.3196 39.1846Z" fill="#3832AF"/>
<path opacity="0.993" fill-rule="evenodd" clip-rule="evenodd" d="M22.3388 41.5283C22.3388 47.0947 22.3388 52.6611 22.3388 58.2275C29.9072 58.2275 37.4754 58.2275 45.0438 58.2275C45.0194 61.1087 45.0438 63.9897 45.1171 66.8701C45.2747 67.4647 45.4457 68.0506 45.6298 68.6279C39.3308 68.6524 33.032 68.6279 26.7333 68.5547C23.3886 67.9443 21.4111 65.9668 20.8007 62.6221C20.7274 55.6398 20.703 48.6574 20.7274 41.6748C21.2346 41.531 21.7717 41.4822 22.3388 41.5283Z" fill="#615361"/>
<path opacity="0.988" fill-rule="evenodd" clip-rule="evenodd" d="M52.3683 47.5342C52.8565 47.5342 53.3449 47.5342 53.8331 47.5342C55.452 47.4886 57.0634 47.5374 58.6671 47.6807C58.7685 47.7576 58.8417 47.8553 58.8868 47.9736C58.9601 49.4865 58.9844 51.0002 58.9601 52.5147C61.646 52.4902 64.3316 52.5147 67.0167 52.5879C69.1133 53.0246 70.4562 54.2697 71.045 56.3232C71.1427 59.9854 71.1427 63.6475 71.045 67.3096C70.6407 68.9092 69.6886 70.0323 68.1886 70.6787C68.1244 70.6882 68.0755 70.6639 68.0421 70.6055C68.6031 69.9501 68.9693 69.1932 69.1407 68.335C69.2384 64.9658 69.2384 61.5967 69.1407 58.2275C68.6293 55.9584 67.2377 54.5668 64.9659 54.0527C59.1065 53.955 53.2472 53.955 47.3878 54.0527C46.999 54.1906 46.6083 54.3126 46.2159 54.419C47.8967 52.703 49.9475 52.0683 52.3683 52.5147C52.8565 52.5147 53.3449 52.5147 53.8331 52.5147C55.005 52.5147 56.1769 52.5147 57.3487 52.5147C57.3487 51.3916 57.3487 50.2686 57.3487 49.1455C56.1769 49.1455 55.005 49.1455 53.8331 49.1455C53.3753 49.0021 52.8871 48.9532 52.3683 48.999C50.7082 48.999 49.0479 48.999 47.3878 48.999C47.412 49.4898 47.3875 49.978 47.3145 50.4639C47.1925 50.6836 47.0216 50.8545 46.8019 50.9766C40.4783 51.0983 34.1794 51.074 27.9054 50.9033C34.0089 50.9033 40.1123 50.9033 46.2159 50.9033C46.2402 49.6329 46.2159 48.3633 46.1427 47.0947C46.0207 46.9727 45.8985 46.8505 45.7765 46.7285C39.6243 46.6553 33.4719 46.6308 27.3194 46.6553C27.2614 46.2826 27.3591 45.9652 27.6124 45.7031C34.0577 45.6054 40.503 45.6054 46.9483 45.7031C47.0704 45.8252 47.1925 45.9473 47.3145 46.0693C47.3875 46.5552 47.412 47.0435 47.3878 47.5342C49.0479 47.5342 50.7082 47.5342 52.3683 47.5342Z" fill="#ED571D"/>
<path fill-rule="evenodd" clip-rule="evenodd" d="M27.3192 46.6553C33.4717 46.6308 39.624 46.6553 45.7762 46.7285C45.8982 46.8505 46.0204 46.9727 46.1424 47.0947C46.2157 48.3633 46.24 49.6329 46.2157 50.9033C40.1121 50.9033 34.0087 50.9033 27.9051 50.9033C27.6829 50.9017 27.5119 50.8042 27.3924 50.6104C27.3192 49.2929 27.2949 47.9745 27.3192 46.6553Z" fill="#FE6D34"/>
<path opacity="0.995" fill-rule="evenodd" clip-rule="evenodd" d="M52.3682 48.999C52.887 48.9532 53.3752 49.0021 53.833 49.1455C53.833 50.2686 53.833 51.3916 53.833 52.5147C53.3448 52.5147 52.8564 52.5147 52.3682 52.5147C52.3682 51.3428 52.3682 50.1709 52.3682 48.999Z" fill="#605260"/>
<path fill-rule="evenodd" clip-rule="evenodd" d="M68.1884 70.6787C67.9281 70.8398 67.6351 70.962 67.3095 71.0449C61.1572 71.1426 55.0048 71.1426 48.8525 71.0449C47.473 70.6261 46.3989 69.8205 45.6298 68.6279C45.4457 68.0506 45.2747 67.4647 45.1171 66.8701C45.0439 63.9897 45.0194 61.1087 45.0439 58.2275C44.9377 56.7946 45.3284 55.5251 46.2158 54.419C46.6082 54.3126 46.9989 54.1906 47.3876 54.0527C53.247 53.955 59.1064 53.955 64.9658 54.0527C67.2376 54.5668 68.6292 55.9584 69.1406 58.2275C69.2383 61.5967 69.2383 64.9658 69.1406 68.335C68.9692 69.1932 68.603 69.9501 68.0419 70.6055C68.0753 70.6639 68.1243 70.6882 68.1884 70.6787Z" fill="#FE6D34"/>
<path fill-rule="evenodd" clip-rule="evenodd" d="M51.0499 58.374C55.7377 58.3496 60.4252 58.374 65.1124 58.4473C65.6375 58.8176 65.6863 59.257 65.2588 59.7656C60.4736 59.8633 55.6886 59.8633 50.9034 59.7656C50.501 59.2607 50.5499 58.7968 51.0499 58.374Z" fill="#E5EEEE"/>
<path fill-rule="evenodd" clip-rule="evenodd" d="M34.2039 62.4756C36.304 62.4511 38.4037 62.4756 40.5027 62.5488C40.9145 63.0314 40.8657 63.4708 40.3562 63.8672C38.3542 63.9649 36.3524 63.9649 34.3504 63.8672C33.8171 63.472 33.7684 63.0081 34.2039 62.4756Z" fill="#E6E8EB"/>
<path fill-rule="evenodd" clip-rule="evenodd" d="M51.0496 63.794C55.7374 63.7695 60.4249 63.794 65.1121 63.8672C65.6373 64.2375 65.686 64.677 65.2586 65.1856C60.5223 65.2833 55.7859 65.2833 51.0496 65.1856C50.6279 64.9415 50.5059 64.5753 50.6834 64.0869C50.8292 64.004 50.9512 63.9063 51.0496 63.794Z" fill="#EAEEF0"/>
</svg>
