<svg width="64" height="64" viewBox="0 0 64 64" fill="none" xmlns="http://www.w3.org/2000/svg">
<path fill-rule="evenodd" clip-rule="evenodd" d="M53.9375 9.9375C39.2709 9.9375 24.6041 9.9375 9.93749 9.9375C9.91667 8.10369 9.93751 6.27036 9.99999 4.4375C10.0625 4.20834 10.2083 4.0625 10.4375 4C24.7709 3.91666 39.1041 3.91666 53.4375 4C53.6666 4.0625 53.8125 4.20834 53.875 4.4375C53.9375 6.27036 53.9584 8.10369 53.9375 9.9375Z" fill="#342EAD"/>
<path fill-rule="evenodd" clip-rule="evenodd" d="M12.5627 5.9375C17.7712 5.91666 22.9795 5.9375 28.1877 6C28.9312 6.30411 29.1187 6.82495 28.7502 7.5625C28.6038 7.73665 28.4163 7.84081 28.1877 7.875C22.9793 7.95834 17.771 7.95834 12.5627 7.875C11.9333 7.49834 11.7874 6.97751 12.1252 6.3125C12.2683 6.17045 12.4141 6.04545 12.5627 5.9375Z" fill="#EFEFEF"/>
<path fill-rule="evenodd" clip-rule="evenodd" d="M42.5627 5.9375C43.5824 5.85286 44.0199 6.31119 43.8752 7.3125C43.5969 7.8576 43.1594 8.0451 42.5627 7.875C42.0175 7.59677 41.83 7.15927 42.0002 6.5625C42.1283 6.28912 42.3158 6.0808 42.5627 5.9375Z" fill="#EFAE07"/>
<path fill-rule="evenodd" clip-rule="evenodd" d="M46.5627 5.9375C47.5824 5.85286 48.0199 6.31119 47.8752 7.3125C47.5969 7.8576 47.1594 8.0451 46.5627 7.875C46.0175 7.59677 45.83 7.15927 46.0002 6.5625C46.1283 6.28912 46.3158 6.0808 46.5627 5.9375Z" fill="#019BC3"/>
<path fill-rule="evenodd" clip-rule="evenodd" d="M50.5627 5.9375C51.3658 5.81677 51.8242 6.15011 51.9377 6.9375C51.8893 7.58999 51.5351 7.92332 50.8752 7.9375C50.1119 7.78701 49.8203 7.32867 50.0002 6.5625C50.1283 6.28912 50.3158 6.0808 50.5627 5.9375Z" fill="#C00D50"/>
<path fill-rule="evenodd" clip-rule="evenodd" d="M9.9375 9.9375C24.6041 9.9375 39.2709 9.9375 53.9375 9.9375C53.9375 10.6042 53.9375 11.2708 53.9375 11.9375C53.9375 12.6041 53.9375 13.2709 53.9375 13.9375C53.9375 14.2709 53.9375 14.6041 53.9375 14.9375C53.9375 22.6875 53.9375 30.4375 53.9375 38.1875C53.8349 38.5605 53.5849 38.7896 53.1875 38.875C38.9791 38.9584 24.7709 38.9584 10.5625 38.875C10.2359 38.7366 10.0275 38.5075 9.9375 38.1875C9.9375 30.4375 9.9375 22.6875 9.9375 14.9375C9.9375 14.6041 9.9375 14.2709 9.9375 13.9375C9.9375 13.2709 9.9375 12.6041 9.9375 11.9375C9.9375 11.2708 9.9375 10.6042 9.9375 9.9375Z" fill="#EFEFEF"/>
<path opacity="0.999" fill-rule="evenodd" clip-rule="evenodd" d="M9.9375 11.9375C9.9375 12.6041 9.9375 13.2709 9.9375 13.9375C8.81173 13.9168 7.68673 13.9375 6.5625 14C6.29167 14.1041 6.10417 14.2916 6 14.5625C5.93783 14.8933 5.91699 15.2266 5.9375 15.5625C5.87615 24.903 5.93865 34.2364 6.125 43.5625C6.23782 43.7126 6.38365 43.8169 6.5625 43.875C23.4375 43.9584 40.3125 43.9584 57.1875 43.875C57.4161 43.8409 57.6036 43.7366 57.75 43.5625C57.9364 34.2364 57.9989 24.903 57.9375 15.5625C57.958 15.2266 57.9371 14.8933 57.875 14.5625C57.7709 14.2916 57.5834 14.1041 57.3125 14C56.1883 13.9375 55.0633 13.9168 53.9375 13.9375C53.9375 13.2709 53.9375 12.6041 53.9375 11.9375C55.5214 11.9167 57.1048 11.9375 58.6875 12C59.25 12.2292 59.6459 12.625 59.875 13.1875C59.9584 25.0209 59.9584 36.8541 59.875 48.6875C59.6459 49.25 59.25 49.6459 58.6875 49.875C51.4793 49.9375 44.271 49.9584 37.0625 49.9375C33.6459 49.9375 30.2291 49.9375 26.8125 49.9375C19.604 49.9584 12.3957 49.9375 5.1875 49.875C4.625 49.6459 4.22917 49.25 4 48.6875C3.91667 36.8541 3.91667 25.0209 4 13.1875C4.22917 12.625 4.625 12.2292 5.1875 12C6.77029 11.9375 8.35362 11.9167 9.9375 11.9375Z" fill="#342EAD"/>
<path fill-rule="evenodd" clip-rule="evenodd" d="M9.93732 13.9375C9.93732 14.2709 9.93732 14.6041 9.93732 14.9375C8.81154 14.9167 7.68654 14.9375 6.56232 15C6.28894 15.1281 6.08062 15.3156 5.93732 15.5625C5.91681 15.2266 5.93764 14.8932 5.99982 14.5625C6.10398 14.2916 6.29148 14.1041 6.56232 14C7.68654 13.9375 8.81154 13.9167 9.93732 13.9375Z" fill="#E34000"/>
<path fill-rule="evenodd" clip-rule="evenodd" d="M53.9375 13.9375C55.0632 13.9167 56.1882 13.9375 57.3125 14C57.5834 14.1041 57.7709 14.2916 57.875 14.5625C57.9371 14.8932 57.958 15.2266 57.9375 15.5625C57.7942 15.3156 57.5859 15.1281 57.3125 15C56.1882 14.9375 55.0632 14.9167 53.9375 14.9375C53.9375 14.6041 53.9375 14.2709 53.9375 13.9375Z" fill="#E34000"/>
<path fill-rule="evenodd" clip-rule="evenodd" d="M20.9375 16.6875C19.6041 16.6875 18.2709 16.6875 16.9375 16.6875C17.3316 15.8991 17.7275 15.1075 18.125 14.3125C18.641 13.8192 19.1619 13.8192 19.6875 14.3125C20.1376 15.0877 20.5543 15.8795 20.9375 16.6875Z" fill="#342EAD"/>
<path fill-rule="evenodd" clip-rule="evenodd" d="M47.9375 18.3125C46.4078 19.8707 44.6162 21.0582 42.5625 21.875C40.762 22.0995 39.387 21.4536 38.4375 19.9375C37.7923 18.5976 37.7923 17.2642 38.4375 15.9375C40.0063 13.7456 41.9647 13.3497 44.3125 14.75C45.5642 15.4597 46.71 16.3139 47.75 17.3125C47.9065 17.6267 47.969 17.96 47.9375 18.3125Z" fill="#FE6D34"/>
<path fill-rule="evenodd" clip-rule="evenodd" d="M9.93734 14.9375C9.93734 22.6875 9.93734 30.4375 9.93734 38.1875C9.90776 38.6591 9.97026 39.1175 10.1248 39.5625C10.2377 39.7126 10.3835 39.8169 10.5623 39.875C24.7707 39.9584 38.979 39.9584 53.1873 39.875C53.416 39.8409 53.6035 39.7366 53.7498 39.5625C53.9045 39.1175 53.967 38.6591 53.9373 38.1875C53.9373 30.4375 53.9373 22.6875 53.9373 14.9375C55.0631 14.9167 56.1881 14.9375 57.3123 15C57.5857 15.1281 57.7941 15.3156 57.9373 15.5625C57.9987 24.903 57.9362 34.2364 57.7498 43.5625C57.6035 43.7366 57.416 43.8409 57.1873 43.875C40.3123 43.9584 23.4373 43.9584 6.56234 43.875C6.38349 43.8169 6.23766 43.7126 6.12484 43.5625C5.93849 34.2364 5.87599 24.903 5.93734 15.5625C6.08064 15.3156 6.28897 15.1281 6.56234 15C7.68657 14.9375 8.81157 14.9167 9.93734 14.9375Z" fill="#FE6D34"/>
<path fill-rule="evenodd" clip-rule="evenodd" d="M38.4373 15.9375C37.7921 17.2643 37.7921 18.5976 38.4373 19.9375C34.7286 19.9584 31.0204 19.9375 27.3123 19.875C26.653 19.5704 26.1948 19.0911 25.9373 18.4375C25.7954 17.2836 26.2538 16.4711 27.3123 16C31.0204 15.9375 34.7286 15.9166 38.4373 15.9375Z" fill="#342EAD"/>
<path fill-rule="evenodd" clip-rule="evenodd" d="M16.9375 16.6875C18.2709 16.6875 19.6041 16.6875 20.9375 16.6875C21.2709 17.3541 21.6041 18.0209 21.9375 18.6875C21.2709 18.6875 20.6041 18.6875 19.9375 18.6875C19.2709 18.6875 18.6041 18.6875 17.9375 18.6875C17.2709 18.6875 16.6041 18.6875 15.9375 18.6875C16.2709 18.0209 16.6041 17.3541 16.9375 16.6875Z" fill="#F8B305"/>
<path fill-rule="evenodd" clip-rule="evenodd" d="M47.9376 18.3125C47.9625 18.7426 47.9 19.1592 47.7501 19.5625C46.4926 20.7363 45.0969 21.7154 43.5626 22.5C41.5085 23.3409 39.8419 22.8618 38.5626 21.0625C34.8134 20.9584 31.0634 20.8959 27.3126 20.875C26.2561 20.4084 25.7977 19.5959 25.9376 18.4375C26.1951 19.0911 26.6534 19.5704 27.3126 19.875C31.0207 19.9375 34.729 19.9584 38.4376 19.9375C39.3871 21.4536 40.7621 22.0995 42.5626 21.875C44.6164 21.0583 46.408 19.8707 47.9376 18.3125Z" fill="#D2D1D1"/>
<path fill-rule="evenodd" clip-rule="evenodd" d="M15.9375 18.6875C16.6041 18.6875 17.2709 18.6875 17.9375 18.6875C17.9375 22.4375 17.9375 26.1875 17.9375 29.9375C17.2709 29.9375 16.6041 29.9375 15.9375 29.9375C15.9375 26.1875 15.9375 22.4375 15.9375 18.6875Z" fill="#342EAD"/>
<path fill-rule="evenodd" clip-rule="evenodd" d="M17.9375 18.6875C18.6041 18.6875 19.2709 18.6875 19.9375 18.6875C19.9375 22.4375 19.9375 26.1875 19.9375 29.9375C19.2709 29.9375 18.6041 29.9375 17.9375 29.9375C17.9375 26.1875 17.9375 22.4375 17.9375 18.6875Z" fill="#EFEFEF"/>
<path fill-rule="evenodd" clip-rule="evenodd" d="M19.9375 18.6875C20.6041 18.6875 21.2709 18.6875 21.9375 18.6875C21.9375 22.4375 21.9375 26.1875 21.9375 29.9375C21.2709 29.9375 20.6041 29.9375 19.9375 29.9375C19.9375 26.1875 19.9375 22.4375 19.9375 18.6875Z" fill="#342EAD"/>
<path fill-rule="evenodd" clip-rule="evenodd" d="M47.9374 35.3125C47.7942 35.5594 47.5858 35.7469 47.3124 35.875C46.8559 35.9374 46.3977 35.9581 45.9374 35.9375C45.9833 35.3791 45.9208 34.8375 45.7499 34.3125C45.0652 33.7498 44.4818 33.8331 43.9999 34.5625C43.9376 35.019 43.9168 35.4773 43.9374 35.9375C43.2708 35.9375 42.6041 35.9375 41.9374 35.9375C41.9833 35.3791 41.9208 34.8375 41.7499 34.3125C41.0652 33.7498 40.4818 33.8331 39.9999 34.5625C39.9376 35.019 39.9168 35.4773 39.9374 35.9375C39.2708 35.9375 38.6041 35.9375 37.9374 35.9375C37.9833 35.3791 37.9208 34.8375 37.7499 34.3125C37.0652 33.7498 36.4818 33.8331 35.9999 34.5625C35.9376 35.019 35.9168 35.4773 35.9374 35.9375C35.2708 35.9375 34.6041 35.9375 33.9374 35.9375C33.9833 35.3791 33.9208 34.8375 33.7499 34.3125C33.0652 33.7498 32.4818 33.8331 31.9999 34.5625C31.9376 35.019 31.9168 35.4773 31.9374 35.9375C31.2708 35.9375 30.6041 35.9375 29.9374 35.9375C29.9833 35.3791 29.9208 34.8375 29.7499 34.3125C29.0652 33.7498 28.4818 33.8331 27.9999 34.5625C27.9376 35.019 27.9168 35.4773 27.9374 35.9375C27.4772 35.9581 27.0189 35.9374 26.5624 35.875C26.2891 35.7469 26.0807 35.5594 25.9374 35.3125C25.8831 34.2986 25.9456 33.2986 26.1249 32.3125C26.2378 32.1624 26.3836 32.0581 26.5624 32C27.0189 31.9376 27.4772 31.9169 27.9374 31.9375C28.1467 27.5829 30.3134 24.6871 34.4374 23.25C39.4806 22.282 43.1264 24.0945 45.3749 28.6875C45.7801 29.7339 45.9676 30.8171 45.9374 31.9375C46.3977 31.9169 46.8559 31.9376 47.3124 32C47.4913 32.0581 47.6371 32.1624 47.7499 32.3125C47.9293 33.2986 47.9918 34.2986 47.9374 35.3125Z" fill="#08019B"/>
<path fill-rule="evenodd" clip-rule="evenodd" d="M41.8126 31.9375C41.1517 29.3611 39.4851 28.0277 36.8126 27.9375C34.2736 28.1436 32.6902 29.477 32.0626 31.9375C32.0501 29.713 33.0919 28.1505 35.1876 27.25C38.8797 26.4494 41.1297 27.8869 41.9376 31.5625C41.9351 31.7157 41.8935 31.8407 41.8126 31.9375Z" fill="#CFD1D2"/>
<path fill-rule="evenodd" clip-rule="evenodd" d="M41.8125 31.9375C38.5625 31.9375 35.3125 31.9375 32.0625 31.9375C32.6901 29.477 34.2735 28.1436 36.8125 27.9375C39.485 28.0278 41.1516 29.3611 41.8125 31.9375Z" fill="#EFEFEF"/>
<path fill-rule="evenodd" clip-rule="evenodd" d="M15.9375 29.9375C16.6041 29.9375 17.2709 29.9375 17.9375 29.9375C18.6041 29.9375 19.2709 29.9375 19.9375 29.9375C20.6041 29.9375 21.2709 29.9375 21.9375 29.9375C21.9375 30.6041 21.9375 31.2709 21.9375 31.9375C19.9375 31.9375 17.9375 31.9375 15.9375 31.9375C15.9375 31.2709 15.9375 30.6041 15.9375 29.9375Z" fill="#F9B400"/>
<path fill-rule="evenodd" clip-rule="evenodd" d="M15.9375 31.9375C17.9375 31.9375 19.9375 31.9375 21.9375 31.9375C21.9375 32.7291 21.9375 33.5209 21.9375 34.3125C21.3953 35.7166 20.3536 36.2582 18.8125 35.9375C17.4354 36.1869 16.477 35.6869 15.9375 34.4375C15.9375 33.6041 15.9375 32.7709 15.9375 31.9375Z" fill="#FE6D34"/>
<path fill-rule="evenodd" clip-rule="evenodd" d="M29.9374 35.9375C29.2708 35.9375 28.604 35.9375 27.9374 35.9375C27.9168 35.4772 27.9375 35.019 27.9999 34.5625C28.4818 33.8331 29.0651 33.7497 29.7499 34.3125C29.9208 34.8375 29.9833 35.3791 29.9374 35.9375Z" fill="#342EAD"/>
<path fill-rule="evenodd" clip-rule="evenodd" d="M33.9374 35.9375C33.2708 35.9375 32.604 35.9375 31.9374 35.9375C31.9168 35.4772 31.9375 35.019 31.9999 34.5625C32.4818 33.8331 33.0651 33.7497 33.7499 34.3125C33.9208 34.8375 33.9833 35.3791 33.9374 35.9375Z" fill="#342EAD"/>
<path fill-rule="evenodd" clip-rule="evenodd" d="M37.9374 35.9375C37.2708 35.9375 36.604 35.9375 35.9374 35.9375C35.9168 35.4772 35.9375 35.019 35.9999 34.5625C36.4818 33.8331 37.0651 33.7497 37.7499 34.3125C37.9208 34.8375 37.9833 35.3791 37.9374 35.9375Z" fill="#342EAD"/>
<path fill-rule="evenodd" clip-rule="evenodd" d="M41.9374 35.9375C41.2708 35.9375 40.604 35.9375 39.9374 35.9375C39.9168 35.4772 39.9375 35.019 39.9999 34.5625C40.4818 33.8331 41.0651 33.7497 41.7499 34.3125C41.9208 34.8375 41.9833 35.3791 41.9374 35.9375Z" fill="#342EAD"/>
<path fill-rule="evenodd" clip-rule="evenodd" d="M45.9374 35.9375C45.2708 35.9375 44.604 35.9375 43.9374 35.9375C43.9168 35.4772 43.9375 35.019 43.9999 34.5625C44.4818 33.8331 45.0651 33.7497 45.7499 34.3125C45.9208 34.8375 45.9833 35.3791 45.9374 35.9375Z" fill="#342EAD"/>
<path fill-rule="evenodd" clip-rule="evenodd" d="M21.9375 34.3125C21.9356 36.3805 20.894 37.2555 18.8125 36.9375C16.9164 37.1656 15.958 36.3324 15.9375 34.4375C16.477 35.6869 17.4354 36.1869 18.8125 35.9375C20.3536 36.2582 21.3953 35.7166 21.9375 34.3125Z" fill="#D2D0D1"/>
<path fill-rule="evenodd" clip-rule="evenodd" d="M25.9374 35.3125C26.0807 35.5594 26.2891 35.7469 26.5624 35.875C27.0189 35.9374 27.4772 35.9581 27.9374 35.9375C28.6041 35.9375 29.2708 35.9375 29.9374 35.9375C30.6041 35.9375 31.2708 35.9375 31.9374 35.9375C32.6041 35.9375 33.2708 35.9375 33.9374 35.9375C34.6041 35.9375 35.2708 35.9375 35.9374 35.9375C36.6041 35.9375 37.2708 35.9375 37.9374 35.9375C38.6041 35.9375 39.2708 35.9375 39.9374 35.9375C40.6041 35.9375 41.2708 35.9375 41.9374 35.9375C42.6041 35.9375 43.2708 35.9375 43.9374 35.9375C44.6041 35.9375 45.2708 35.9375 45.9374 35.9375C46.3977 35.9581 46.8559 35.9374 47.3124 35.875C47.5858 35.7469 47.7942 35.5594 47.9374 35.3125C47.9623 35.7426 47.8998 36.1592 47.7499 36.5625C47.6036 36.7366 47.4161 36.8409 47.1874 36.875C40.3124 36.9584 33.4374 36.9584 26.5624 36.875C26.3836 36.8169 26.2378 36.7126 26.1249 36.5625C25.9751 36.1592 25.9126 35.7426 25.9374 35.3125Z" fill="#D1D2D2"/>
<path fill-rule="evenodd" clip-rule="evenodd" d="M9.93731 38.1875C10.0273 38.5075 10.2357 38.7366 10.5623 38.875C24.7707 38.9584 38.9789 38.9584 53.1873 38.875C53.5847 38.7896 53.8347 38.5605 53.9373 38.1875C53.9669 38.6591 53.9044 39.1175 53.7498 39.5625C53.6034 39.7366 53.4159 39.8409 53.1873 39.875C38.9789 39.9584 24.7707 39.9584 10.5623 39.875C10.3835 39.8169 10.2376 39.7126 10.1248 39.5625C9.97022 39.1175 9.90772 38.6591 9.93731 38.1875Z" fill="#E34000"/>
<path fill-rule="evenodd" clip-rule="evenodd" d="M57.6875 47.5625C57.55 47.6948 57.3833 47.799 57.1875 47.875C55.6459 47.9584 54.1042 47.9584 52.5625 47.875C52.3823 47.8279 52.2573 47.7238 52.1875 47.5625C51.7793 46.9168 51.9043 46.3959 52.5625 46C54.1042 45.9166 55.6459 45.9166 57.1875 46C57.9575 46.3296 58.1242 46.8505 57.6875 47.5625Z" fill="#EEEFEF"/>
<path fill-rule="evenodd" clip-rule="evenodd" d="M49.6876 47.5625C49.1779 48.0491 48.6779 48.0491 48.1876 47.5625C47.7382 46.7395 47.9673 46.1978 48.8751 45.9375C49.8563 46.1436 50.1271 46.6853 49.6876 47.5625Z" fill="#EBEEEE"/>
<path fill-rule="evenodd" clip-rule="evenodd" d="M48.1875 47.5625C48.6779 48.0491 49.1779 48.0491 49.6875 47.5625C49.8311 47.5989 49.9145 47.703 49.9375 47.875C49.9166 48.5625 49.5625 48.9166 48.875 48.9375C48.2559 48.8598 47.9434 48.5056 47.9375 47.875C47.9605 47.703 48.0439 47.5989 48.1875 47.5625Z" fill="#08019B"/>
<path fill-rule="evenodd" clip-rule="evenodd" d="M52.1873 47.5625C52.2571 47.7237 52.3821 47.8279 52.5623 47.875C54.1039 47.9584 55.6457 47.9584 57.1873 47.875C57.3831 47.799 57.5498 47.6947 57.6873 47.5625C57.9919 47.9523 57.9503 48.3481 57.5623 48.75C56.6759 48.889 55.7801 48.9515 54.8748 48.9375C54.0079 48.9537 53.1538 48.8912 52.3123 48.75C51.9243 48.3481 51.8827 47.9523 52.1873 47.5625Z" fill="#08019B"/>
<path fill-rule="evenodd" clip-rule="evenodd" d="M26.8125 49.9375C30.2291 49.9375 33.6459 49.9375 37.0625 49.9375C37.0719 50.2758 37.1135 50.6091 37.1875 50.9375C33.685 51.0197 30.2266 50.9365 26.8125 50.6875C26.8125 50.4375 26.8125 50.1875 26.8125 49.9375Z" fill="#342EAD"/>
<path opacity="0.995" fill-rule="evenodd" clip-rule="evenodd" d="M26.8125 50.6875C30.2266 50.9365 33.685 51.0197 37.1875 50.9375C37.4646 52.6001 37.7146 54.2669 37.9375 55.9375C33.9375 55.9375 29.9375 55.9375 25.9375 55.9375C26.1506 54.1585 26.4424 52.4085 26.8125 50.6875Z" fill="#07009B"/>
<path opacity="0.997" fill-rule="evenodd" clip-rule="evenodd" d="M25.9375 55.9375C29.9375 55.9375 33.9375 55.9375 37.9375 55.9375C39.5214 55.9166 41.1048 55.9375 42.6875 56C43.25 56.2291 43.6459 56.625 43.875 57.1875C43.9584 57.9375 43.9584 58.6875 43.875 59.4375C43.8283 59.552 43.7658 59.6562 43.6875 59.75C39.7814 59.895 35.8647 59.9575 31.9375 59.9375C28.0104 59.9575 24.0937 59.895 20.1875 59.75C20.1093 59.6562 20.0468 59.552 20 59.4375C19.9167 58.6875 19.9167 57.9375 20 57.1875C20.2292 56.625 20.625 56.2291 21.1875 56C22.7703 55.9375 24.3537 55.9166 25.9375 55.9375Z" fill="#342EAD"/>
</svg>
